<?xml version="1.0" encoding="UTF-8"?>
<!DOCTYPE svg PUBLIC "-//W3C//DTD SVG 1.1//EN" "http://www.w3.org/Graphics/SVG/1.1/DTD/svg11.dtd">
<svg xmlns="http://www.w3.org/2000/svg" version="1.1" width="272px" height="74px" style="shape-rendering:geometricPrecision; text-rendering:geometricPrecision; image-rendering:optimizeQuality; fill-rule:evenodd; clip-rule:evenodd" xmlns:xlink="http://www.w3.org/1999/xlink">
<g><path style="opacity:0.961" fill="#dcb86c" d="M 69.5,30.5 C 67.5,30.5 66.5,31.5 66.5,33.5C 65.8686,31.0248 64.8686,28.6915 63.5,26.5C 63.6716,25.5084 63.3382,24.8417 62.5,24.5C 62.6716,23.5084 62.3382,22.8417 61.5,22.5C 61.5,21.8333 61.1667,21.5 60.5,21.5C 60.573,19.9731 59.9063,18.9731 58.5,18.5C 58.5,17.8333 58.1667,17.5 57.5,17.5C 57.5,16.8333 57.1667,16.5 56.5,16.5C 55.7377,14.7376 54.4044,13.7376 52.5,13.5C 52.1583,12.6618 51.4916,12.3284 50.5,12.5C 50.1583,11.6618 49.4916,11.3284 48.5,11.5C 48.1583,10.6618 47.4916,10.3284 46.5,10.5C 45.0813,9.54885 43.4147,9.21552 41.5,9.5C 38.6965,8.36216 35.6965,8.19549 32.5,9C 30.1484,9.24013 28.1484,10.0735 26.5,11.5C 25.5084,11.3284 24.8417,11.6618 24.5,12.5C 23.5084,12.3284 22.8417,12.6618 22.5,13.5C 20.5956,13.7376 19.2623,14.7376 18.5,16.5C 17.8333,16.5 17.5,16.8333 17.5,17.5C 16.8333,17.5 16.5,17.8333 16.5,18.5C 15.0937,18.9731 14.427,19.9731 14.5,21.5C 13.8333,21.5 13.5,21.8333 13.5,22.5C 12.6618,22.8417 12.3284,23.5084 12.5,24.5C 11.6618,24.8417 11.3284,25.5084 11.5,26.5C 10.596,27.209 10.2627,28.209 10.5,29.5C 7.8629,35.6374 8.19623,41.6374 11.5,47.5C 11.3284,48.4916 11.6618,49.1583 12.5,49.5C 12.2291,51.3797 12.8958,52.713 14.5,53.5C 14.5,54.1667 14.8333,54.5 15.5,54.5C 16.1667,57.1667 17.8333,58.8333 20.5,59.5C 20.5,60.1667 20.8333,60.5 21.5,60.5C 22.911,62.539 24.911,63.539 27.5,63.5C 28.209,64.404 29.209,64.7373 30.5,64.5C 34.9074,66.7799 39.574,67.1132 44.5,65.5C 45.0431,65.56 45.3764,65.8933 45.5,66.5C 44.8075,67.5178 44.1408,68.5178 43.5,69.5C 20.5307,70.8621 7.53075,60.1954 4.5,37.5C 7.38935,14.4385 20.3893,3.60519 43.5,5C 57.3055,8.30587 65.9722,16.8059 69.5,30.5 Z M 41.5,9.5 C 36.4246,9.64883 31.4246,10.3155 26.5,11.5C 28.1484,10.0735 30.1484,9.24013 32.5,9C 35.6965,8.19549 38.6965,8.36216 41.5,9.5 Z M 22.5,13.5 C 21.7377,15.2624 20.4044,16.2624 18.5,16.5C 19.2623,14.7376 20.5956,13.7376 22.5,13.5 Z M 52.5,13.5 C 54.4044,13.7376 55.7377,14.7376 56.5,16.5C 54.5956,16.2624 53.2623,15.2624 52.5,13.5 Z M 16.5,18.5 C 16.573,20.0269 15.9063,21.0269 14.5,21.5C 14.427,19.9731 15.0937,18.9731 16.5,18.5 Z M 58.5,18.5 C 59.9063,18.9731 60.573,19.9731 60.5,21.5C 59.0937,21.0269 58.427,20.0269 58.5,18.5 Z"/></g>
<g><path style="opacity:0.987" fill="#d5ac54" d="M 41.5,9.5 C 42.9187,10.4511 44.5853,10.7845 46.5,10.5C 46.8417,11.3382 47.5084,11.6716 48.5,11.5C 48.8417,12.3382 49.5084,12.6716 50.5,12.5C 50.8417,13.3382 51.5084,13.6716 52.5,13.5C 53.2623,15.2624 54.5956,16.2624 56.5,16.5C 57.1667,16.5 57.5,16.8333 57.5,17.5C 58.1667,17.5 58.5,17.8333 58.5,18.5C 58.427,20.0269 59.0937,21.0269 60.5,21.5C 61.1667,21.5 61.5,21.8333 61.5,22.5C 61.5,23.1667 61.5,23.8333 61.5,24.5C 60.6906,25.4687 59.6906,26.3021 58.5,27C 55.9644,27.1862 53.631,27.6862 51.5,28.5C 50.8333,28.1667 50.1667,27.8333 49.5,27.5C 48.5806,24.9108 46.914,22.9108 44.5,21.5C 42.9287,18.2559 40.5954,15.5892 37.5,13.5C 34.7341,15.2593 32.7341,17.5927 31.5,20.5C 26.6774,24.6554 23.0107,29.6554 20.5,35.5C 20.8333,40.8333 21.1667,40.8333 21.5,35.5C 22.2028,37.6287 23.2028,39.6287 24.5,41.5C 26.2593,44.1897 28.5926,44.8564 31.5,43.5C 30.9747,42.8076 30.3081,42.3076 29.5,42C 30.7659,41.6905 31.9326,41.1905 33,40.5C 34.22,42.8572 35.0533,42.5239 35.5,39.5C 36.8026,41.7569 36.136,43.5902 33.5,45C 30.854,45.4974 28.1873,45.6641 25.5,45.5C 25.5,46.1667 25.8333,46.5 26.5,46.5C 24.2966,50.3275 22.2966,54.3275 20.5,58.5C 18.8333,57.1667 17.1667,55.8333 15.5,54.5C 14.8333,54.5 14.5,54.1667 14.5,53.5C 14.3404,51.847 13.6737,50.5137 12.5,49.5C 12.6716,48.5084 12.3382,47.8417 11.5,47.5C 10.6365,41.5451 10.3032,35.5451 10.5,29.5C 11.404,28.791 11.7373,27.791 11.5,26.5C 12.3382,26.1583 12.6716,25.4916 12.5,24.5C 13.3382,24.1583 13.6716,23.4916 13.5,22.5C 14.1667,22.5 14.5,22.1667 14.5,21.5C 15.9063,21.0269 16.573,20.0269 16.5,18.5C 17.1667,18.5 17.5,18.1667 17.5,17.5C 18.1667,17.5 18.5,17.1667 18.5,16.5C 20.4044,16.2624 21.7377,15.2624 22.5,13.5C 23.4916,13.6716 24.1583,13.3382 24.5,12.5C 25.4916,12.6716 26.1583,12.3382 26.5,11.5C 31.4246,10.3155 36.4246,9.64883 41.5,9.5 Z"/></g>
<g><path style="opacity:0.133" fill="#ebd6ab" d="M 44.5,21.5 C 42.8333,20.1667 41.1667,18.8333 39.5,17.5C 39.189,16.5222 38.5223,15.8555 37.5,15.5C 35.4807,17.1897 33.4807,18.8564 31.5,20.5C 32.7341,17.5927 34.7341,15.2593 37.5,13.5C 40.5954,15.5892 42.9287,18.2559 44.5,21.5 Z"/></g>
<g><path style="opacity:0.729" fill="#878a8c" d="M 257.5,17.5 C 258.705,18.6719 258.705,20.0052 257.5,21.5C 254.633,22.7741 251.633,23.6075 248.5,24C 247.833,25.3333 247.167,26.6667 246.5,28C 257.981,27.7842 261.315,32.9509 256.5,43.5C 252.923,47.2933 248.589,48.7933 243.5,48C 249.415,46.2527 253.082,42.4194 254.5,36.5C 254.852,34.0759 253.852,32.5759 251.5,32C 248.854,31.5026 246.187,31.3359 243.5,31.5C 244.224,28.1574 245.057,24.824 246,21.5C 249.312,20.0237 252.812,19.1904 256.5,19C 257.056,18.6174 257.389,18.1174 257.5,17.5 Z"/></g>
<g><path style="opacity:0.816" fill="#878a8c" d="M 237.5,18.5 C 239.309,26.7755 240.142,35.4421 240,44.5C 240.925,45.0465 241.758,45.7132 242.5,46.5C 239.5,47.8333 236.5,47.8333 233.5,46.5C 234.242,45.7132 235.075,45.0465 236,44.5C 236.5,37.1742 236.666,29.8409 236.5,22.5C 235.022,22.762 233.689,22.4287 232.5,21.5C 234.544,20.9348 236.21,19.9348 237.5,18.5 Z"/></g>
<g><path style="opacity:0.542" fill="#878a8c" d="M 260.5,18.5 C 262.331,19.0522 263.997,19.0522 265.5,18.5C 266.063,20.7092 267.396,22.2092 269.5,23C 268.789,24.2547 267.956,25.4214 267,26.5C 264.703,26.4609 262.37,26.1276 260,25.5C 259.297,23.0709 259.463,20.7375 260.5,18.5 Z"/></g>
<g><path style="opacity:0.984" fill="#e4c172" d="M 87.5,18.5 C 100.443,18.6119 105.276,24.9453 102,37.5C 100.833,40 99,41.8333 96.5,43C 83.1675,45.3325 77.3342,39.8325 79,26.5C 80.4447,22.218 83.2781,19.5513 87.5,18.5 Z M 89.5,20.5 C 91.1703,20.7512 92.6703,21.4178 94,22.5C 96.8148,27.6831 97.1482,33.0164 95,38.5C 92.6968,42.027 90.0301,42.3603 87,39.5C 84.3761,32.5898 85.2095,26.2565 89.5,20.5 Z"/></g>
<g><path style="opacity:0.488" fill="#efddb2" d="M 119.5,20.5 C 117.5,20.5 115.5,20.5 113.5,20.5C 111.265,20.2053 109.265,20.5386 107.5,21.5C 105.897,21.6882 104.563,21.1882 103.5,20C 109.016,19.1826 114.35,19.3493 119.5,20.5 Z"/></g>
<g><path style="opacity:0.49" fill="#efdcaf" d="M 148.5,20.5 C 142.642,20.1778 136.975,20.5111 131.5,21.5C 130.244,21.5386 129.244,21.0386 128.5,20C 135.346,19.1794 142.013,19.346 148.5,20.5 Z"/></g>
<g><path style="opacity:0.483" fill="#efdcb0" d="M 194.5,20.5 C 190.298,20.1832 186.298,20.5166 182.5,21.5C 181.325,21.719 180.325,21.3857 179.5,20.5C 184.652,19.1863 189.652,19.1863 194.5,20.5 Z"/></g>
<g><path style="opacity:0.971" fill="#dfb85b" d="M 113.5,20.5 C 113.5,20.8333 113.5,21.1667 113.5,21.5C 113.5,28.1667 113.5,34.8333 113.5,41.5C 111.5,42.8333 109.5,42.8333 107.5,41.5C 107.5,34.8333 107.5,28.1667 107.5,21.5C 109.265,20.5386 111.265,20.2053 113.5,20.5 Z"/></g>
<g><path style="opacity:0.991" fill="#e3bf6d" d="M 113.5,21.5 C 113.5,21.1667 113.5,20.8333 113.5,20.5C 115.5,20.5 117.5,20.5 119.5,20.5C 125.178,21.86 127.845,25.5267 127.5,31.5C 127.845,37.4733 125.178,41.14 119.5,42.5C 118.209,42.7373 117.209,42.404 116.5,41.5C 118.173,40.657 119.34,39.3237 120,37.5C 120.667,33.8333 120.667,30.1667 120,26.5C 118.809,23.4659 116.642,21.7993 113.5,21.5 Z"/></g>
<g><path style="opacity:0.985" fill="#dfb85d" d="M 131.5,21.5 C 136.975,20.5111 142.642,20.1778 148.5,20.5C 148.808,22.924 148.474,25.2573 147.5,27.5C 146.866,25.2276 145.532,23.5609 143.5,22.5C 141.735,21.5386 139.735,21.2053 137.5,21.5C 137.19,24.7131 137.523,27.7131 138.5,30.5C 138.5,31.1667 138.5,31.8333 138.5,32.5C 138.19,35.7131 138.523,38.7131 139.5,41.5C 137.393,42.4682 135.059,42.8016 132.5,42.5C 132.825,35.3134 132.491,28.3134 131.5,21.5 Z"/></g>
<g><path style="opacity:0.989" fill="#e3c06e" d="M 171.5,19.5 C 170.167,20.1667 168.833,20.8333 167.5,21.5C 165.915,22.0024 165.415,23.0024 166,24.5C 169.667,27.1667 173.333,29.8333 177,32.5C 178.227,36.5913 177.394,40.0913 174.5,43C 169.997,43.2591 165.663,43.4257 161.5,43.5C 161.194,40.6146 161.527,37.9479 162.5,35.5C 164.662,41.7417 168.328,42.9083 173.5,39C 170.742,35.7819 167.409,33.2819 163.5,31.5C 159.5,27.8333 159.5,24.1667 163.5,20.5C 166.084,19.6072 168.751,19.2739 171.5,19.5 Z"/></g>
<g><path style="opacity:0.968" fill="#eacd8e" d="M 171.5,19.5 C 172.94,20.3629 174.274,20.3629 175.5,19.5C 176.833,22.1667 176.833,24.8333 175.5,27.5C 174.221,23.544 171.554,21.544 167.5,21.5C 168.833,20.8333 170.167,20.1667 171.5,19.5 Z"/></g>
<g><path style="opacity:0.996" fill="#e0ba61" d="M 194.5,20.5 C 197.525,21.0332 198.858,22.8665 198.5,26C 198.858,29.1335 197.525,30.9668 194.5,31.5C 192.901,31.7678 191.568,31.4345 190.5,30.5C 192.326,28.5449 192.826,26.2116 192,23.5C 191.184,22.1772 190.017,21.5106 188.5,21.5C 187.213,25.0649 187.213,28.7316 188.5,32.5C 188.5,35.5 188.5,38.5 188.5,41.5C 186.5,42.8333 184.5,42.8333 182.5,41.5C 182.5,34.8333 182.5,28.1667 182.5,21.5C 186.298,20.5166 190.298,20.1832 194.5,20.5 Z M 188.5,21.5 C 190.017,21.5106 191.184,22.1772 192,23.5C 192.826,26.2116 192.326,28.5449 190.5,30.5C 188.612,28.0122 187.945,25.0122 188.5,21.5 Z"/></g>
<g><path style="opacity:0.972" fill="#e1bc66" d="M 219.5,40.5 C 219.03,41.6935 218.03,42.3601 216.5,42.5C 214.886,42.1971 213.552,41.5305 212.5,40.5C 211.766,39.2921 211.433,37.9587 211.5,36.5C 208.753,36.1866 206.086,36.52 203.5,37.5C 202.754,38.7362 202.421,40.0695 202.5,41.5C 201.5,42.8333 200.5,42.8333 199.5,41.5C 200.463,38.2558 201.796,35.2558 203.5,32.5C 204.404,33.209 204.737,34.209 204.5,35.5C 206.5,35.5 208.5,35.5 210.5,35.5C 210.843,33.5168 210.176,32.1834 208.5,31.5C 208.5,31.1667 208.5,30.8333 208.5,30.5C 207.498,28.9891 206.831,27.3224 206.5,25.5C 206.877,23.742 207.544,22.0754 208.5,20.5C 209.274,19.2888 210.107,19.2888 211,20.5C 213.945,27.184 216.779,33.8506 219.5,40.5 Z"/></g>
<g><path style="opacity:0.467" fill="#ecd6a2" d="M 188.5,21.5 C 187.945,25.0122 188.612,28.0122 190.5,30.5C 191.568,31.4345 192.901,31.7678 194.5,31.5C 192.735,32.4614 190.735,32.7947 188.5,32.5C 187.213,28.7316 187.213,25.0649 188.5,21.5 Z"/></g>
<g><path style="opacity:0.314" fill="#edd9b0" d="M 44.5,21.5 C 46.914,22.9108 48.5806,24.9108 49.5,27.5C 48.2058,26.7101 47.0391,25.7101 46,24.5C 45.5357,25.0944 45.369,25.7611 45.5,26.5C 43.8333,25.1667 42.1667,23.8333 40.5,22.5C 40.369,21.7611 40.5357,21.0944 41,20.5C 42,21.5 43,22.5 44,23.5C 44.4643,22.9056 44.631,22.2389 44.5,21.5 Z"/></g>
<g><path style="opacity:0.416" fill="#ecd39b" d="M 143.5,22.5 C 141.833,22.5 140.167,22.5 138.5,22.5C 138.5,25.1667 138.5,27.8333 138.5,30.5C 137.523,27.7131 137.19,24.7131 137.5,21.5C 139.735,21.2053 141.735,21.5386 143.5,22.5 Z"/></g>
<g><path style="opacity:0.639" fill="#e5c991" d="M 24.5,41.5 C 23.2028,39.6287 22.2028,37.6287 21.5,35.5C 21.1667,35.5 20.8333,35.5 20.5,35.5C 23.0107,29.6554 26.6774,24.6554 31.5,20.5C 31.369,21.2389 31.5357,21.9056 32,22.5C 33,21.5 34,20.5 35,19.5C 35.1667,19.8333 35.3333,20.1667 35.5,20.5C 32.3333,24.1667 29.1667,27.8333 26,31.5C 24.6842,34.6883 24.1842,38.0217 24.5,41.5 Z"/></g>
<g><path style="opacity:0.942" fill="#e6c377" d="M 138.5,32.5 C 138.5,31.8333 138.5,31.1667 138.5,30.5C 140.516,29.5141 141.849,27.8474 142.5,25.5C 143.661,29.7953 143.828,34.1287 143,38.5C 142.114,35.9071 140.614,33.9071 138.5,32.5 Z"/></g>
<g><path style="opacity:0.912" fill="#dab561" d="M 40.5,22.5 C 42.1667,23.8333 43.8333,25.1667 45.5,26.5C 45.5,27.1667 45.5,27.8333 45.5,28.5C 44.8333,28.5 44.5,28.8333 44.5,29.5C 43.0594,29.6369 41.7261,30.6369 40.5,32.5C 39.6981,31.0484 39.1981,29.3817 39,27.5C 37.3866,28.6223 36.2199,28.1223 35.5,26C 37.1341,25.5065 38.8008,25.3398 40.5,25.5C 40.5,24.5 40.5,23.5 40.5,22.5 Z"/></g>
<g><path style="opacity:0.594" fill="#d8b25a" d="M 49.5,27.5 C 49.5,28.1667 49.5,28.8333 49.5,29.5C 48.1667,28.5 46.8333,27.5 45.5,26.5C 45.369,25.7611 45.5357,25.0944 46,24.5C 47.0391,25.7101 48.2058,26.7101 49.5,27.5 Z"/></g>
<g><path style="opacity:0.031" fill="#e8d19d" d="M 45.5,26.5 C 46.8333,27.5 48.1667,28.5 49.5,29.5C 49.5,30.1667 49.5,30.8333 49.5,31.5C 48.1667,30.5 46.8333,29.5 45.5,28.5C 45.5,27.8333 45.5,27.1667 45.5,26.5 Z"/></g>
<g><path style="opacity:0.122" fill="#eeddb5" d="M 49.5,27.5 C 50.1667,27.8333 50.8333,28.1667 51.5,28.5C 52.1098,29.391 52.4431,30.391 52.5,31.5C 51.5,30.8333 50.5,30.1667 49.5,29.5C 49.5,28.8333 49.5,28.1667 49.5,27.5 Z"/></g>
<g><path style="opacity:0.161" fill="#ebd8af" d="M 29.5,31.5 C 28.8902,32.391 28.5569,33.391 28.5,34.5C 28.1667,34.5 27.8333,34.5 27.5,34.5C 27.2852,32.8212 27.9519,31.8212 29.5,31.5 Z"/></g>
<g><path style="opacity:0.145" fill="#e9d39e" d="M 44.5,29.5 C 44.8333,29.5 45.1667,29.5 45.5,29.5C 46.7196,31.2821 47.3862,33.2821 47.5,35.5C 45.8008,35.6602 44.1341,35.4935 42.5,35C 41.3044,34.3457 41.3044,33.8457 42.5,33.5C 43.891,34.6446 45.2243,34.6446 46.5,33.5C 44.604,32.5344 42.604,32.2011 40.5,32.5C 41.7261,30.6369 43.0594,29.6369 44.5,29.5 Z"/></g>
<g><path style="opacity:0.647" fill="#dbb863" d="M 49.5,29.5 C 50.5,30.1667 51.5,30.8333 52.5,31.5C 52.5,32.5 52.5,33.5 52.5,34.5C 51.7281,33.3065 50.7281,32.3065 49.5,31.5C 49.5,30.8333 49.5,30.1667 49.5,29.5 Z"/></g>
<g><path style="opacity:0.537" fill="#e5c98d" d="M 40.5,22.5 C 40.5,23.5 40.5,24.5 40.5,25.5C 38.8008,25.3398 37.1341,25.5065 35.5,26C 36.2199,28.1223 37.3866,28.6223 39,27.5C 39.1981,29.3817 39.6981,31.0484 40.5,32.5C 40.2172,33.2891 39.7172,33.9558 39,34.5C 38.0228,33.2264 37.1894,33.2264 36.5,34.5C 34.4525,32.9255 32.1192,31.9255 29.5,31.5C 29.5,30.8333 29.5,30.1667 29.5,29.5C 30.1667,29.5 30.5,29.1667 30.5,28.5C 31.6697,30.2785 33.3364,31.2785 35.5,31.5C 34.9919,28.8239 34.8253,26.1572 35,23.5C 36.8612,22.1271 38.6945,21.7938 40.5,22.5 Z"/></g>
<g><path style="opacity:0.875" fill="#d7af59" d="M 39.5,17.5 C 41.1667,18.8333 42.8333,20.1667 44.5,21.5C 44.631,22.2389 44.4643,22.9056 44,23.5C 43,22.5 42,21.5 41,20.5C 40.5357,21.0944 40.369,21.7611 40.5,22.5C 38.6945,21.7938 36.8612,22.1271 35,23.5C 34.8253,26.1572 34.9919,28.8239 35.5,31.5C 33.3364,31.2785 31.6697,30.2785 30.5,28.5C 29.8333,28.5 29.5,28.8333 29.5,29.5C 29.5,30.1667 29.5,30.8333 29.5,31.5C 27.9519,31.8212 27.2852,32.8212 27.5,34.5C 27.5,35.1667 27.8333,35.5 28.5,35.5C 28.9175,36.2216 29.5842,36.7216 30.5,37C 29.8742,37.7504 29.3742,38.5838 29,39.5C 28.2588,40.6405 27.4255,40.6405 26.5,39.5C 25.3044,39.8457 25.3044,40.3457 26.5,41C 25.9056,41.4643 25.2389,41.631 24.5,41.5C 24.1842,38.0217 24.6842,34.6883 26,31.5C 29.1667,27.8333 32.3333,24.1667 35.5,20.5C 35.3333,20.1667 35.1667,19.8333 35,19.5C 34,20.5 33,21.5 32,22.5C 31.5357,21.9056 31.369,21.2389 31.5,20.5C 33.4807,18.8564 35.4807,17.1897 37.5,15.5C 38.5223,15.8555 39.189,16.5222 39.5,17.5 Z"/></g>
<g><path style="opacity:0.047" fill="#f0e0c1" d="M 39.5,17.5 C 39.3036,19.6456 38.3036,19.8122 36.5,18C 37.448,17.5172 38.448,17.3505 39.5,17.5 Z"/></g>
<g><path style="opacity:0.498" fill="#d9b35e" d="M 29.5,31.5 C 32.1192,31.9255 34.4525,32.9255 36.5,34.5C 36.3713,36.2161 36.038,37.8828 35.5,39.5C 34.325,39.719 33.325,39.3857 32.5,38.5C 31.6698,36.8651 31.5031,35.1984 32,33.5C 30.9887,34.3366 29.8221,34.67 28.5,34.5C 28.5569,33.391 28.8902,32.391 29.5,31.5 Z"/></g>
<g><path style="opacity:0.169" fill="#efdeb7" d="M 49.5,31.5 C 50.7281,32.3065 51.7281,33.3065 52.5,34.5C 52.7845,36.4147 52.4511,38.0813 51.5,39.5C 51.1667,39.5 50.8333,39.5 50.5,39.5C 50.9234,38.7354 51.2568,37.9021 51.5,37C 50.6805,35.1997 50.0138,33.3664 49.5,31.5 Z"/></g>
<g><path style="opacity:0.749" fill="#eace8e" d="M 206.5,25.5 C 206.831,27.3224 207.498,28.9891 208.5,30.5C 207.883,30.3893 207.383,30.056 207,29.5C 206.598,30.8721 206.098,32.2054 205.5,33.5C 206.833,34.8333 208.167,34.8333 209.5,33.5C 209.137,32.8165 208.804,32.1499 208.5,31.5C 210.176,32.1834 210.843,33.5168 210.5,35.5C 208.5,35.5 206.5,35.5 204.5,35.5C 204.737,34.209 204.404,33.209 203.5,32.5C 204.264,29.9823 205.264,27.649 206.5,25.5 Z"/></g>
<g><path style="opacity:0.063" fill="#f5ebd2" d="M 162.5,35.5 C 161.527,37.9479 161.194,40.6146 161.5,43.5C 160.197,40.6447 160.197,37.6447 161.5,34.5C 162.107,34.6236 162.44,34.9569 162.5,35.5 Z"/></g>
<g><path style="opacity:0.304" fill="#ddb964" d="M 45.5,28.5 C 46.8333,29.5 48.1667,30.5 49.5,31.5C 50.0138,33.3664 50.6805,35.1997 51.5,37C 51.2568,37.9021 50.9234,38.7354 50.5,39.5C 50.5,39.8333 50.5,40.1667 50.5,40.5C 47.6994,41.7659 44.6994,42.5992 41.5,43C 45.5727,45.2842 48.906,44.4509 51.5,40.5C 51.5,40.1667 51.5,39.8333 51.5,39.5C 52.4511,38.0813 52.7845,36.4147 52.5,34.5C 53.4682,36.6074 53.8016,38.9407 53.5,41.5C 48.9512,46.3405 44.1179,46.6738 39,42.5C 38.6667,40.1667 38.3333,37.8333 38,35.5C 37.6174,34.944 37.1174,34.6107 36.5,34.5C 37.1894,33.2264 38.0228,33.2264 39,34.5C 39.7172,33.9558 40.2172,33.2891 40.5,32.5C 42.604,32.2011 44.604,32.5344 46.5,33.5C 45.2243,34.6446 43.891,34.6446 42.5,33.5C 41.3044,33.8457 41.3044,34.3457 42.5,35C 44.1341,35.4935 45.8008,35.6602 47.5,35.5C 47.3862,33.2821 46.7196,31.2821 45.5,29.5C 45.5,29.1667 45.5,28.8333 45.5,28.5 Z"/></g>
<g><path style="opacity:0.018" fill="#efdfb7" d="M 52.5,31.5 C 53.1174,31.6107 53.6174,31.944 54,32.5C 54.8045,35.6965 54.6378,38.6965 53.5,41.5C 53.8016,38.9407 53.4682,36.6074 52.5,34.5C 52.5,33.5 52.5,32.5 52.5,31.5 Z"/></g>
<g><path style="opacity:0.031" fill="#f4e8cc" d="M 148.5,36.5 C 149.302,35.1153 149.969,35.282 150.5,37C 150.43,37.7648 150.097,38.2648 149.5,38.5C 149.672,37.5084 149.338,36.8417 148.5,36.5 Z"/></g>
<g><path style="opacity:0.339" fill="#e1c27d" d="M 35.5,39.5 C 35.0533,42.5239 34.22,42.8572 33,40.5C 31.9326,41.1905 30.7659,41.6905 29.5,42C 30.3081,42.3076 30.9747,42.8076 31.5,43.5C 28.5926,44.8564 26.2593,44.1897 24.5,41.5C 25.2389,41.631 25.9056,41.4643 26.5,41C 25.3044,40.3457 25.3044,39.8457 26.5,39.5C 27.4255,40.6405 28.2588,40.6405 29,39.5C 29.3742,38.5838 29.8742,37.7504 30.5,37C 29.5842,36.7216 28.9175,36.2216 28.5,35.5C 28.5,35.1667 28.5,34.8333 28.5,34.5C 29.8221,34.67 30.9887,34.3366 32,33.5C 31.5031,35.1984 31.6698,36.8651 32.5,38.5C 33.325,39.3857 34.325,39.719 35.5,39.5 Z"/></g>
<g><path style="opacity:0.985" fill="#e1bd63" d="M 64.5,41.5 C 64.1667,43.5 63.8333,45.5 63.5,47.5C 62.0687,48.7804 61.4021,50.4471 61.5,52.5C 59.8564,52.8102 58.8564,53.8102 58.5,55.5C 56.8333,56.5 55.5,57.8333 54.5,59.5C 53.8333,59.5 53.5,59.8333 53.5,60.5C 50.3135,61.5969 47.3135,62.9303 44.5,64.5C 39.8333,64.5 35.1667,64.5 30.5,64.5C 30.5,64.1667 30.5,63.8333 30.5,63.5C 34.3246,64.2113 37.3246,63.0446 39.5,60C 38.5842,59.7216 37.9175,59.2216 37.5,58.5C 37.8333,58.5 38.1667,58.5 38.5,58.5C 39.1667,58.5 39.8333,58.5 40.5,58.5C 41.8333,56.1667 41.8333,53.8333 40.5,51.5C 40.56,50.9569 40.8933,50.6236 41.5,50.5C 42.1719,51.9492 42.8386,53.2825 43.5,54.5C 43.2627,55.791 43.596,56.791 44.5,57.5C 44.8333,58.8333 45.1667,58.8333 45.5,57.5C 45.5,56.1667 45.5,54.8333 45.5,53.5C 48.6043,50.8991 51.6043,48.0657 54.5,45C 57.8522,43.8304 61.1855,42.6637 64.5,41.5 Z"/></g>
<g><path style="opacity:0.52" fill="#ebd195" d="M 131.5,21.5 C 132.491,28.3134 132.825,35.3134 132.5,42.5C 135.059,42.8016 137.393,42.4682 139.5,41.5C 143.69,41.9775 146.69,40.3108 148.5,36.5C 149.338,36.8417 149.672,37.5084 149.5,38.5C 149.5,40.1667 149.5,41.8333 149.5,43.5C 142.492,43.6663 135.492,43.4996 128.5,43C 129.025,42.3076 129.692,41.8076 130.5,41.5C 131.497,34.8665 131.83,28.1998 131.5,21.5 Z"/></g>
<g><path style="opacity:0.522" fill="#ecd39b" d="M 199.5,41.5 C 200.5,42.8333 201.5,42.8333 202.5,41.5C 203.675,41.281 204.675,41.6143 205.5,42.5C 202.554,43.6548 199.554,43.8214 196.5,43C 197.244,41.9614 198.244,41.4614 199.5,41.5 Z"/></g>
<g><path style="opacity:0.511" fill="#ead093" d="M 212.5,40.5 C 213.552,41.5305 214.886,42.1971 216.5,42.5C 218.03,42.3601 219.03,41.6935 219.5,40.5C 220.478,40.811 221.145,41.4777 221.5,42.5C 217.833,43.8333 214.167,43.8333 210.5,42.5C 211.243,41.8182 211.909,41.1515 212.5,40.5 Z"/></g>
<g><path style="opacity:0.063" fill="#ead5a6" d="M 25.5,45.5 C 22.5266,45.0349 21.3599,43.3682 22,40.5C 22.9973,42.3231 24.1639,43.9897 25.5,45.5 Z"/></g>
<g><path style="opacity:0.514" fill="#e9cf91" d="M 107.5,41.5 C 109.5,42.8333 111.5,42.8333 113.5,41.5C 114.5,41.5 115.5,41.5 116.5,41.5C 117.209,42.404 118.209,42.7373 119.5,42.5C 114.35,43.6507 109.016,43.8174 103.5,43C 104.745,42.2086 106.078,41.7086 107.5,41.5 Z"/></g>
<g><path style="opacity:0.512" fill="#ead195" d="M 182.5,41.5 C 184.5,42.8333 186.5,42.8333 188.5,41.5C 189.675,41.281 190.675,41.6143 191.5,42.5C 187.5,43.8333 183.5,43.8333 179.5,42.5C 180.325,41.6143 181.325,41.281 182.5,41.5 Z"/></g>
<g><path style="opacity:0.988" fill="#dbb457" d="M 61.5,24.5 C 61.8333,24.5 62.1667,24.5 62.5,24.5C 62.3284,25.4916 62.6618,26.1583 63.5,26.5C 64.254,31.4635 64.5874,36.4635 64.5,41.5C 61.1855,42.6637 57.8522,43.8304 54.5,45C 51.6043,48.0657 48.6043,50.8991 45.5,53.5C 44.8333,53.8333 44.1667,54.1667 43.5,54.5C 42.8386,53.2825 42.1719,51.9492 41.5,50.5C 40.8933,50.6236 40.56,50.9569 40.5,51.5C 40.5,53.8333 40.5,56.1667 40.5,58.5C 39.8333,58.5 39.1667,58.5 38.5,58.5C 38.5,58.1667 38.5,57.8333 38.5,57.5C 38.6738,52.9786 38.0071,52.6452 36.5,56.5C 36.6236,57.1067 36.9569,57.44 37.5,57.5C 37.5,57.8333 37.5,58.1667 37.5,58.5C 37.9175,59.2216 38.5842,59.7216 39.5,60C 37.3246,63.0446 34.3246,64.2113 30.5,63.5C 29.5,63.5 28.5,63.5 27.5,63.5C 25.8185,61.9925 23.8185,60.9925 21.5,60.5C 20.8333,60.5 20.5,60.1667 20.5,59.5C 20.5,59.1667 20.5,58.8333 20.5,58.5C 22.2966,54.3275 24.2966,50.3275 26.5,46.5C 30.6959,47.7726 34.3625,46.7726 37.5,43.5C 41.268,47.3594 45.6014,48.1928 50.5,46C 52.1412,44.871 53.1412,43.371 53.5,41.5C 54.6378,38.6965 54.8045,35.6965 54,32.5C 53.6174,31.944 53.1174,31.6107 52.5,31.5C 52.4431,30.391 52.1098,29.391 51.5,28.5C 53.631,27.6862 55.9644,27.1862 58.5,27C 59.6906,26.3021 60.6906,25.4687 61.5,24.5 Z"/></g>
<g><path style="opacity:0.221" fill="#ead29b" d="M 50.5,40.5 C 50.8333,40.5 51.1667,40.5 51.5,40.5C 48.906,44.4509 45.5727,45.2842 41.5,43C 44.6994,42.5992 47.6994,41.7659 50.5,40.5 Z"/></g>
<g><path style="opacity:0.192" fill="#ebd6a4" d="M 36.5,34.5 C 37.1174,34.6107 37.6174,34.944 38,35.5C 38.3333,37.8333 38.6667,40.1667 39,42.5C 44.1179,46.6738 48.9512,46.3405 53.5,41.5C 53.1412,43.371 52.1412,44.871 50.5,46C 45.6014,48.1928 41.268,47.3594 37.5,43.5C 34.3625,46.7726 30.6959,47.7726 26.5,46.5C 25.8333,46.5 25.5,46.1667 25.5,45.5C 28.1873,45.6641 30.854,45.4974 33.5,45C 36.136,43.5902 36.8026,41.7569 35.5,39.5C 36.038,37.8828 36.3713,36.2161 36.5,34.5 Z"/></g>
<g><path style="opacity:0.675" fill="#878a8c" d="M 79.5,50.5 C 81.6934,49.2031 84.0268,49.2031 86.5,50.5C 85.6086,51.5896 84.6086,51.5896 83.5,50.5C 83.1667,51 82.8333,51.5 82.5,52C 83.3542,52.5739 84.3542,53.2406 85.5,54C 84.9896,55.8261 84.1562,55.9928 83,54.5C 82.3162,55.7839 82.4829,56.9505 83.5,58C 82.1667,58.6667 80.8333,58.6667 79.5,58C 80.8143,55.3953 80.8143,52.8953 79.5,50.5 Z"/></g>
<g><path style="opacity:0.614" fill="#878a8c" d="M 90.5,49.5 C 97.4863,49.331 99.153,52.1643 95.5,58C 88.4159,58.475 86.7492,55.6417 90.5,49.5 Z M 92.5,50.5 C 96.0974,52.5946 96.2641,54.9279 93,57.5C 91.1932,55.294 91.0265,52.9606 92.5,50.5 Z"/></g>
<g><path style="opacity:0.643" fill="#878a8c" d="M 99.5,50.5 C 101.628,49.3709 103.961,49.2042 106.5,50C 107.86,51.9376 107.527,53.6043 105.5,55C 106.5,56 107.5,57 108.5,58C 105.663,58.0684 102.663,58.0684 99.5,58C 100.658,56.9914 101.325,55.6581 101.5,54C 101.392,52.3189 100.725,51.1522 99.5,50.5 Z"/></g>
<g><path style="opacity:0.591" fill="#878a8c" d="M 110.5,50.5 C 111.251,49.4265 112.251,49.2599 113.5,50C 114.717,51.6477 115.55,53.481 116,55.5C 116.471,53.7536 117.138,52.087 118,50.5C 119.049,49.4829 120.216,49.3162 121.5,50C 120.167,52.6667 120.167,55.3333 121.5,58C 117.987,58.0598 114.321,58.0598 110.5,58C 111.814,55.3953 111.814,52.8953 110.5,50.5 Z"/></g>
<g><path style="opacity:0.686" fill="#878a8c" d="M 123.5,50.5 C 126.024,49.1997 128.691,49.1997 131.5,50.5C 130.609,51.5896 129.609,51.5896 128.5,50.5C 128.167,51 127.833,51.5 127.5,52C 128.354,52.5739 129.354,53.2406 130.5,54C 129.99,55.8261 129.156,55.9928 128,54.5C 127.251,55.635 127.417,56.635 128.5,57.5C 129.609,56.4104 130.609,56.4104 131.5,57.5C 128.894,58.6517 126.227,58.8184 123.5,58C 124.658,56.9914 125.325,55.6581 125.5,54C 125.392,52.3189 124.725,51.1522 123.5,50.5 Z"/></g>
<g><path style="opacity:0.643" fill="#878a8c" d="M 133.5,50.5 C 135.628,49.3709 137.961,49.2042 140.5,50C 141.86,51.9376 141.527,53.6043 139.5,55C 140.5,56 141.5,57 142.5,58C 139.663,58.0684 136.663,58.0684 133.5,58C 134.658,56.9914 135.325,55.6581 135.5,54C 135.392,52.3189 134.725,51.1522 133.5,50.5 Z"/></g>
<g><path style="opacity:0.585" fill="#878a8c" d="M 144.5,50.5 C 145.946,49.3871 147.613,49.2204 149.5,50C 148.223,52.4659 148.223,54.9659 149.5,57.5C 150.609,56.4104 151.609,56.4104 152.5,57.5C 149.894,58.6517 147.227,58.8184 144.5,58C 145.814,55.3953 145.814,52.8953 144.5,50.5 Z"/></g>
<g><path style="opacity:0.593" fill="#878a8c" d="M 153.5,50.5 C 154.568,49.5655 155.901,49.2322 157.5,49.5C 157.202,52.3356 157.869,52.8356 159.5,51C 159.167,50.6667 158.833,50.3333 158.5,50C 159.833,49.3333 161.167,49.3333 162.5,50C 159.773,52.2408 159.106,54.9074 160.5,58C 158.833,58.6667 157.167,58.6667 155.5,58C 156.943,54.9388 156.276,52.4388 153.5,50.5 Z"/></g>
<g><path style="opacity:0.651" fill="#878a8c" d="M 171.5,49.5 C 178.486,49.0183 180.486,51.8517 177.5,58C 175.231,58.7581 173.064,58.5914 171,57.5C 170.278,54.7395 170.445,52.0728 171.5,49.5 Z M 173.5,50.5 C 174.496,50.4142 175.329,50.7476 176,51.5C 176.82,53.728 176.487,55.728 175,57.5C 172.318,55.6233 171.818,53.2899 173.5,50.5 Z"/></g>
<g><path style="opacity:0.579" fill="#878a8c" d="M 182.5,49.5 C 188.446,50.1863 189.113,52.6863 184.5,57C 185.738,56.9227 186.738,57.0894 187.5,57.5C 185.579,58.641 183.579,58.8077 181.5,58C 184.639,55.9631 185.472,53.4631 184,50.5C 181.821,51.8398 181.321,51.5065 182.5,49.5 Z"/></g>
<g><path style="opacity:0.593" fill="#878a8c" d="M 196.5,49.5 C 198.5,49.5 200.5,49.5 202.5,49.5C 202.344,53.1351 201.178,53.4685 199,50.5C 198.833,50.8333 198.667,51.1667 198.5,51.5C 200.097,52.7908 201.43,54.2908 202.5,56C 202.138,57.8853 200.971,58.7186 199,58.5C 198.167,58.1667 197.333,57.8333 196.5,57.5C 197.989,57.4669 199.322,56.9669 200.5,56C 197.307,54.9745 195.974,52.8078 196.5,49.5 Z"/></g>
<g><path style="opacity:0.722" fill="#878a8c" d="M 205.5,50.5 C 207.56,49.1888 209.726,49.1888 212,50.5C 212.847,53.4904 211.68,54.8238 208.5,54.5C 208.33,55.8221 208.663,56.9887 209.5,58C 208.167,58.6667 206.833,58.6667 205.5,58C 206.814,55.3953 206.814,52.8953 205.5,50.5 Z M 208.5,50.5 C 210.76,51.2376 210.927,52.2376 209,53.5C 208.517,52.552 208.351,51.552 208.5,50.5 Z"/></g>
<g><path style="opacity:0.617" fill="#878a8c" d="M 216.5,49.5 C 217.5,49.5 218.5,49.5 219.5,49.5C 219.804,52.5792 220.804,55.4125 222.5,58C 221.167,58.6667 219.833,58.6667 218.5,58C 219.604,56.8687 219.271,56.0354 217.5,55.5C 216.614,56.325 216.281,57.325 216.5,58.5C 215.448,58.6495 214.448,58.4828 213.5,58C 215.196,55.4125 216.196,52.5792 216.5,49.5 Z"/></g>
<g><path style="opacity:0.625" fill="#878a8c" d="M 233.5,52.5 C 234.91,51.1716 236.076,51.5049 237,53.5C 238.067,51.7174 239.567,51.2174 241.5,52C 238.805,53.4164 238.139,55.4164 239.5,58C 238.167,58.6667 236.833,58.6667 235.5,58C 236.225,55.8197 235.559,53.9864 233.5,52.5 Z"/></g>
<g><path style="opacity:0.659" fill="#878a8c" d="M 242.5,52.5 C 244.693,51.2031 247.027,51.2031 249.5,52.5C 248.167,54.1667 248.167,55.8333 249.5,57.5C 247.235,58.6474 244.902,58.8141 242.5,58C 243.807,56.0565 243.807,54.2232 242.5,52.5 Z M 245.5,52.5 C 247.337,52.6395 247.67,53.3061 246.5,54.5C 245.702,54.0431 245.369,53.3764 245.5,52.5 Z M 245.5,55.5 C 247.337,55.6395 247.67,56.3061 246.5,57.5C 245.702,57.0431 245.369,56.3764 245.5,55.5 Z"/></g>
<g><path style="opacity:0.611" fill="#878a8c" d="M 254.5,51.5 C 255.496,51.4142 256.329,51.7476 257,52.5C 257.45,54.519 258.283,56.3523 259.5,58C 258.167,58.6667 256.833,58.6667 255.5,58C 256.696,57.3457 256.696,56.8457 255.5,56.5C 254.468,58.0396 253.135,58.5396 251.5,58C 252.793,55.9481 253.793,53.7814 254.5,51.5 Z"/></g>
<g><path style="opacity:0.65" fill="#878a8c" d="M 261.5,52.5 C 263.265,51.5386 265.265,51.2053 267.5,51.5C 267.714,53.1439 267.38,54.6439 266.5,56C 267.328,56.9147 268.328,57.5814 269.5,58C 266.833,58.6667 264.167,58.6667 261.5,58C 262.807,56.0565 262.807,54.2232 261.5,52.5 Z"/></g>
<g><path style="opacity:0.067" fill="#f6edd7" d="M 29.5,56.5 C 28.5084,56.6716 27.8417,56.3382 27.5,55.5C 28.8333,54.8333 28.8333,54.1667 27.5,53.5C 27.7828,52.7109 28.2828,52.0442 29,51.5C 29.4935,53.1341 29.6602,54.8008 29.5,56.5 Z"/></g>
<g><path style="opacity:0.267" fill="#edd8a9" d="M 33.5,52.5 C 33.8333,52.5 34.1667,52.5 34.5,52.5C 34.2322,54.099 34.5655,55.4324 35.5,56.5C 35.2172,57.2891 34.7172,57.9558 34,58.5C 33.5045,56.5273 33.3379,54.5273 33.5,52.5 Z"/></g>
<g><path style="opacity:0.973" fill="#e8c77a" d="M 69.5,30.5 C 71.9787,51.0082 63.312,64.0082 43.5,69.5C 44.1408,68.5178 44.8075,67.5178 45.5,66.5C 45.3764,65.8933 45.0431,65.56 44.5,65.5C 44.5,65.1667 44.5,64.8333 44.5,64.5C 48.1645,64.4982 51.1645,63.1648 53.5,60.5C 54.1667,60.5 54.5,60.1667 54.5,59.5C 56.8333,59.1667 58.1667,57.8333 58.5,55.5C 60.1436,55.1898 61.1436,54.1898 61.5,52.5C 62.9313,51.2196 63.5979,49.5529 63.5,47.5C 65.9556,43.2741 66.9556,38.6075 66.5,33.5C 66.5,31.5 67.5,30.5 69.5,30.5 Z"/></g>
<g><path style="opacity:0.318" fill="#efdbad" d="M 45.5,53.5 C 45.5,54.8333 45.5,56.1667 45.5,57.5C 45.1667,57.5 44.8333,57.5 44.5,57.5C 43.596,56.791 43.2627,55.791 43.5,54.5C 44.1667,54.1667 44.8333,53.8333 45.5,53.5 Z"/></g>
<g><path style="opacity:0.204" fill="#eedbae" d="M 38.5,57.5 C 38.1667,57.5 37.8333,57.5 37.5,57.5C 36.9569,57.44 36.6236,57.1067 36.5,56.5C 38.0071,52.6452 38.6738,52.9786 38.5,57.5 Z"/></g>
</svg>
